<mxfile host="app.diagrams.net">
  <diagram name="まとめ" id="summary">
    <mxGraphModel dx="1422" dy="794" grid="1" gridSize="10" guides="1" tooltips="1" connect="1" arrows="1" fold="1" page="1" pageScale="1" pageWidth="1600" pageHeight="900" background="#ffffff">
      <root>
        <mxCell id="0"/>
        <mxCell id="1" parent="1"/>

        <!-- Title -->
        <mxCell id="title" value="まとめ：Databricks移行の効果" style="text;html=1;strokeColor=none;fillColor=none;align=center;verticalAlign=middle;whiteSpace=wrap;rounded=0;fontSize=32;fontStyle=1;fontColor=#232F3E;" vertex="1" parent="1">
          <mxGeometry x="400" y="30" width="800" height="60" as="geometry"/>
        </mxCell>

        <!-- Top Row: 3 Key Benefits -->
        <mxCell id="benefit1-box" value="" style="rounded=1;whiteSpace=wrap;html=1;fillColor=#d5e8d4;strokeColor=#82b366;strokeWidth=3;" vertex="1" parent="1">
          <mxGeometry x="80" y="130" width="440" height="260" as="geometry"/>
        </mxCell>
        <mxCell id="benefit1-icon" value="⚡" style="text;html=1;strokeColor=none;fillColor=none;align=center;verticalAlign=middle;whiteSpace=wrap;rounded=0;fontSize=80;" vertex="1" parent="1">
          <mxGeometry x="220" y="150" width="160" height="80" as="geometry"/>
        </mxCell>
        <mxCell id="benefit1-title" value="開発速度" style="text;html=1;strokeColor=none;fillColor=none;align=center;verticalAlign=middle;whiteSpace=wrap;rounded=0;fontSize=24;fontStyle=1;fontColor=#82b366;" vertex="1" parent="1">
          <mxGeometry x="120" y="240" width="360" height="30" as="geometry"/>
        </mxCell>
        <mxCell id="benefit1-detail" value="50分以上 → 1-2分&lt;br&gt;約25-50倍の高速化" style="text;html=1;strokeColor=none;fillColor=none;align=center;verticalAlign=middle;whiteSpace=wrap;rounded=0;fontSize=20;fontStyle=1;" vertex="1" parent="1">
          <mxGeometry x="120" y="280" width="360" height="80" as="geometry"/>
        </mxCell>

        <mxCell id="benefit2-box" value="" style="rounded=1;whiteSpace=wrap;html=1;fillColor=#dae8fc;strokeColor=#6c8ebf;strokeWidth=3;" vertex="1" parent="1">
          <mxGeometry x="580" y="130" width="440" height="260" as="geometry"/>
        </mxCell>
        <mxCell id="benefit2-icon" value="📚" style="text;html=1;strokeColor=none;fillColor=none;align=center;verticalAlign=middle;whiteSpace=wrap;rounded=0;fontSize=80;" vertex="1" parent="1">
          <mxGeometry x="720" y="150" width="160" height="80" as="geometry"/>
        </mxCell>
        <mxCell id="benefit2-title" value="学習時間配分" style="text;html=1;strokeColor=none;fillColor=none;align=center;verticalAlign=middle;whiteSpace=wrap;rounded=0;fontSize=24;fontStyle=1;fontColor=#6c8ebf;" vertex="1" parent="1">
          <mxGeometry x="620" y="240" width="360" height="30" as="geometry"/>
        </mxCell>
        <mxCell id="benefit2-detail" value="機械学習・データ分析: 30% → 90%&lt;br&gt;本質的なスキルに集中" style="text;html=1;strokeColor=none;fillColor=none;align=center;verticalAlign=middle;whiteSpace=wrap;rounded=0;fontSize=20;fontStyle=1;" vertex="1" parent="1">
          <mxGeometry x="620" y="280" width="360" height="80" as="geometry"/>
        </mxCell>

        <mxCell id="benefit3-box" value="" style="rounded=1;whiteSpace=wrap;html=1;fillColor=#fff2cc;strokeColor=#d6b656;strokeWidth=3;" vertex="1" parent="1">
          <mxGeometry x="1080" y="130" width="440" height="260" as="geometry"/>
        </mxCell>
        <mxCell id="benefit3-icon" value="🔍" style="text;html=1;strokeColor=none;fillColor=none;align=center;verticalAlign=middle;whiteSpace=wrap;rounded=0;fontSize=80;" vertex="1" parent="1">
          <mxGeometry x="1220" y="150" width="160" height="80" as="geometry"/>
        </mxCell>
        <mxCell id="benefit3-title" value="デバッグ体験" style="text;html=1;strokeColor=none;fillColor=none;align=center;verticalAlign=middle;whiteSpace=wrap;rounded=0;fontSize=24;fontStyle=1;fontColor=#d6b656;" vertex="1" parent="1">
          <mxGeometry x="1120" y="240" width="360" height="30" as="geometry"/>
        </mxCell>
        <mxCell id="benefit3-detail" value="ログ確認のみ → セル単位実行&lt;br&gt;即座に結果確認・修正" style="text;html=1;strokeColor=none;fillColor=none;align=center;verticalAlign=middle;whiteSpace=wrap;rounded=0;fontSize=20;fontStyle=1;" vertex="1" parent="1">
          <mxGeometry x="1120" y="280" width="360" height="80" as="geometry"/>
        </mxCell>

        <!-- Key Messages -->
        <mxCell id="message1-box" value="" style="rounded=1;whiteSpace=wrap;html=1;fillColor=#f8cecc;strokeColor=#b85450;strokeWidth=3;" vertex="1" parent="1">
          <mxGeometry x="200" y="450" width="1200" height="100" as="geometry"/>
        </mxCell>
        <mxCell id="message1-icon" value="💡" style="text;html=1;strokeColor=none;fillColor=none;align=center;verticalAlign=middle;whiteSpace=wrap;rounded=0;fontSize=60;" vertex="1" parent="1">
          <mxGeometry x="230" y="470" width="100" height="60" as="geometry"/>
        </mxCell>
        <mxCell id="message1-text" value="開発体験は生産性に直結する" style="text;html=1;strokeColor=none;fillColor=none;align=left;verticalAlign=middle;whiteSpace=wrap;rounded=0;fontSize=24;fontStyle=1;spacingLeft=20;" vertex="1" parent="1">
          <mxGeometry x="350" y="485" width="1000" height="30" as="geometry"/>
        </mxCell>

        <mxCell id="message2-box" value="" style="rounded=1;whiteSpace=wrap;html=1;fillColor=#e1d5e7;strokeColor=#9673a6;strokeWidth=3;" vertex="1" parent="1">
          <mxGeometry x="200" y="580" width="1200" height="100" as="geometry"/>
        </mxCell>
        <mxCell id="message2-icon" value="🎯" style="text;html=1;strokeColor=none;fillColor=none;align=center;verticalAlign=middle;whiteSpace=wrap;rounded=0;fontSize=60;" vertex="1" parent="1">
          <mxGeometry x="230" y="600" width="100" height="60" as="geometry"/>
        </mxCell>
        <mxCell id="message2-text" value="ツール選択は学習コストも考慮すべき" style="text;html=1;strokeColor=none;fillColor=none;align=left;verticalAlign=middle;whiteSpace=wrap;rounded=0;fontSize=24;fontStyle=1;spacingLeft=20;" vertex="1" parent="1">
          <mxGeometry x="350" y="615" width="1000" height="30" as="geometry"/>
        </mxCell>

        <mxCell id="message3-box" value="" style="rounded=1;whiteSpace=wrap;html=1;fillColor=#ffe6cc;strokeColor=#d79b00;strokeWidth=3;" vertex="1" parent="1">
          <mxGeometry x="200" y="710" width="1200" height="100" as="geometry"/>
        </mxCell>
        <mxCell id="message3-icon" value="🚀" style="text;html=1;strokeColor=none;fillColor=none;align=center;verticalAlign=middle;whiteSpace=wrap;rounded=0;fontSize=60;" vertex="1" parent="1">
          <mxGeometry x="230" y="730" width="100" height="60" as="geometry"/>
        </mxCell>
        <mxCell id="message3-text" value="インタラクティブな環境が学習を加速する" style="text;html=1;strokeColor=none;fillColor=none;align=left;verticalAlign=middle;whiteSpace=wrap;rounded=0;fontSize=24;fontStyle=1;spacingLeft=20;" vertex="1" parent="1">
          <mxGeometry x="350" y="745" width="1000" height="30" as="geometry"/>
        </mxCell>

      </root>
    </mxGraphModel>
  </diagram>
</mxfile>
